<?xml version="1.0" encoding="utf-8"?>
<!-- Generator: Adobe Illustrator 22.0.1, SVG Export Plug-In . SVG Version: 6.00 Build 0)  -->
<svg version="1.1" id="Layer_1" xmlns="http://www.w3.org/2000/svg" xmlns:xlink="http://www.w3.org/1999/xlink" x="0px" y="0px"
	 viewBox="0 0 300.7 92.4" style="enable-background:new 0 0 300.7 92.4;" xml:space="preserve">
<style type="text/css">
	.st0{fill:#25A9E0;}
	.st1{fill:#58595B;}
	.st2{font-family:'Arial-BoldMT';}
	.st3{font-size:76.12px;}
	.st4{letter-spacing:-3.2;}
	.st5{letter-spacing:-1.2;}
	.st6{letter-spacing:-1.3;}
</style>
<title>Ditcos Logo Final</title>
<path class="st0" d="M22.8,34.6c-1.4,0.5-2.8,1.2-4.1,2c-1.3,0.8-2.5,1.6-3.5,2.7c-1,1-1.9,2.1-2.7,3.3c-0.7,1.2-1.3,2.4-1.6,3.7
	s-0.5,2.6-0.5,4c0,1.3,0.2,2.6,0.5,3.9c0.6,2.5,1.9,4.9,3.7,7c1.6,1.9,3.9,3.2,6.5,3.8c1,0.1,1.9,0.1,2.9,0.1c0.3,0,0.6-0.1,0.9-0.1
	c1.2-0.2,2.4-0.6,3.5-1.2c2.3-1.3,4.1-3.1,5.4-5.3c0.7-1.1,1.3-2.3,1.9-3.5c0.3-0.6,0.5-1.2,0.7-1.8c0.1-0.3,0.2-0.6,0.3-0.9
	c0.1-0.3,0.2-0.6,0.2-0.8l2.2-9.6l3.8,9.4c0.1,0.3,0.3,0.8,0.5,1.2s0.4,0.8,0.6,1.3c0.4,0.8,0.9,1.7,1.4,2.5c1,1.6,2.1,3,3.4,4.3
	c1.1,1.1,2.5,2,4,2.6c0.6,0.2,1.3,0.3,2,0.3c0.3,0,0.7,0,1-0.1c0.2,0,0.3-0.1,0.5-0.1l0.3-0.1h0.1l0,0h-0.1l0.2-0.1
	c2.8-0.9,5.1-3.7,6.7-6.9c1.6-3.3,2.6-6.9,3-10.5c0.4-3.7,0.4-7.4-0.2-11c-0.5-3.6-1.6-7.2-3.2-10.5c-1.5-3.2-3.7-6.2-6.4-8.7
	C55.5,14,54,13,52.3,12.1c-0.4-0.2-0.8-0.4-1.2-0.6l-0.6-0.3l-0.7-0.3l-0.4-0.2l-0.3-0.1l-0.6-0.3l-1.4-0.5
	C39.6,7,31.3,6.6,23.5,8.4c-1.9,0.4-3.8,1-5.6,1.8c-0.9,0.4-1.8,0.8-2.6,1.2l-0.7,0.4L14,12.1c-0.4,0.2-0.8,0.5-1.2,0.8
	c-1.6,1-3,2.2-4.3,3.5c-1.2,1.1-2,2.5-2.4,4c-0.4,1.3-0.1,2.7,0.8,3.8c1.1,1.3,2.5,2.4,4.1,3.2c1.8,0.9,3.8,1.5,5.7,2.1
	c2.1,0.5,4.2,1,6.3,1.3s4.3,0.6,6.5,0.8c2.2,0.2,4.4,0.4,6.6,0.5c4.4,0.2,8.9,0.3,13.3,0.2c-4.4,0.7-8.8,1.3-13.3,1.6
	c-2.2,0.1-4.5,0.2-6.7,0.3c-2.2,0-4.5,0-6.8-0.2c-4.5-0.3-9.2-0.8-13.7-2.6c-2.4-0.9-4.6-2.3-6.3-4.2c-1.9-2.1-2.8-4.8-2.4-7.5
	c0.4-2.5,1.5-4.8,3.2-6.7c1.4-2,3.1-3.6,5.1-5C9,7.7,9.4,7.3,10,7l0.8-0.5l0.7-0.4c1-0.6,2.1-1.2,3.2-1.7c2.2-1,4.4-1.9,6.8-2.5
	C30.9-0.7,41-0.4,50.2,2.7c0.6,0.2,1.1,0.4,1.7,0.6l0.9,0.3l0.4,0.2L53.6,4l0.8,0.3l0.3,0.1l0.2,0.1l0.4,0.2C55.9,5,56.4,5.3,57,5.5
	c2.2,1.2,4.2,2.6,6,4.2c1.8,1.6,3.4,3.4,4.8,5.2c1.4,1.9,2.5,3.8,3.5,5.9c1.9,4,3.1,8.3,3.7,12.6s0.5,8.6-0.1,12.9
	c-0.6,4.4-2,8.6-4.1,12.6c-1.1,2.1-2.6,4-4.3,5.7c-0.9,0.9-2,1.8-3.1,2.5c-0.6,0.4-1.2,0.7-1.9,1c-0.3,0.2-0.7,0.3-1.1,0.5
	s-0.6,0.2-0.9,0.3L59.3,69L59,69.2h-0.1h-0.1l-0.5,0.1c-0.4,0.1-0.7,0.2-1.1,0.2c-2.3,0.3-4.7,0.1-6.8-0.7c-2.6-1-4.8-2.5-6.6-4.5
	c-1.6-1.7-3-3.6-4.1-5.6c-0.6-1-1.1-2-1.5-2.9c-0.2-0.5-0.5-1-0.7-1.5s-0.4-1-0.6-1.6l6-0.2c-0.1,0.5-0.3,0.8-0.4,1.2
	c-0.1,0.3-0.3,0.7-0.4,1.1c-0.3,0.7-0.6,1.4-0.9,2.1c-0.7,1.4-1.5,2.8-2.5,4.1s-2.1,2.6-3.3,3.7c-1.3,1.2-2.8,2.2-4.4,2.9
	c-1.7,0.8-3.5,1.3-5.3,1.5c-0.5,0.1-1,0.1-1.5,0.1c-0.4,0-0.9,0-1.3,0c-1,0-1.9-0.1-2.8-0.4c-1.8-0.4-3.5-1.2-5-2.2
	c-1.4-1-2.6-2.2-3.6-3.5c-1-1.3-1.8-2.7-2.4-4.1c-0.6-1.4-1-2.9-1.2-4.4c-0.5-3-0.2-6.1,0.9-8.9c0.6-1.4,1.3-2.8,2.3-4
	c0.9-1.2,2-2.3,3.3-3.3C16.9,36.6,19.7,35.3,22.8,34.6z"/>
<text transform="matrix(0.833 0 0 1 74.7607 65.8701)" class="st1 st2 st3">DI</text>
<text transform="matrix(0.9271 0 0 1 134.3647 65.8701)" class="st1 st2 st3 st4">T</text>
<text transform="matrix(0.8137 0 0 1 171 65.8701)" class="st1 st2 st3 st5">C</text>
<text transform="matrix(0.7778 0 0 1 213.1289 65.8701)" class="st1 st2 st3 st6">OS</text>
</svg>
